<?xml version="1.0" encoding="UTF-8"?>
<svg id="Layer_2" data-name="Layer 2" xmlns="http://www.w3.org/2000/svg" xmlns:xlink="http://www.w3.org/1999/xlink" viewBox="0 0 324.05 465.97">
  <defs>
    <style>
      .cls-1 {
        fill: url(#linear-gradient-2);
      }

      .cls-2 {
        fill: url(#linear-gradient);
      }
    </style>
    <linearGradient id="linear-gradient" x1="-7.53" y1="333.94" x2="278.94" y2="7.64" gradientUnits="userSpaceOnUse">
      <stop offset="0" stop-color="#ee4456"/>
      <stop offset="1" stop-color="#eed1d4"/>
    </linearGradient>
    <linearGradient id="linear-gradient-2" x1="307.41" y1="275.14" x2="105.2" y2="416.07" xlink:href="#linear-gradient"/>
  </defs>
  <g id="Layer_1-2" data-name="Layer 1">
    <g>
      <path class="cls-2" d="m271.53,69.28c-2.29-19.23-10.7-35.02-25.2-47.34-4.28-3.63-9.06-6.81-14.38-9.54C215.89,4.14,195.17,0,169.75,0H60.48l-15.52,87.21-9.58,53.89L0,339.98h44.38l24.88-139.02h53.16l18.23,44.81,39.81,95.18c12.6-9.87,28.34-15.93,45.46-16.46l-40.6-95.75-13.14-31.2c4.11-.86,8.11-1.86,11.98-2.98,22.42-6.49,40.7-17.38,54.84-32.63,16.58-17.88,26.99-38.53,31.21-61.95,1.3-9.09,1.95-15.61,1.95-19.52s-.22-7.59-.65-11.19Zm-47.15,30.71c-.84,4.68-1.98,9.16-3.43,13.39-4.6,13.71-12.23,25.1-22.91,34.17-7.71,6.54-16.93,11.27-27.69,14.2-8.78,2.4-18.57,3.6-29.39,3.6h-65.36l4.27-24.25,9.49-53.89,9.17-52.1h64.87c21.14,0,36.83,4.22,47.07,12.68.14.11.29.24.43.36,9.97,8.43,14.95,20.34,14.95,35.74,0,4.87-.49,10.24-1.46,16.09Z"/>
      <path class="cls-1" d="m204.67,227.17c-2.24,0-4.47.06-6.68.19l17.82,42.29c37.62,5.4,66.57,37.77,66.57,76.92,0,42.91-34.8,77.71-77.71,77.71s-77.71-34.8-77.71-77.71c0-19.88,7.47-38.04,19.76-51.78l-16.8-41.31c-27.23,21.88-44.64,55.44-44.64,93.09,0,65.93,53.45,119.4,119.4,119.4s119.38-53.46,119.38-119.4-53.45-119.4-119.38-119.4Z"/>
    </g>
  </g>
</svg>