<?xml version="1.0" standalone="no"?>
<!DOCTYPE svg PUBLIC "-//W3C//DTD SVG 20010904//EN"
 "http://www.w3.org/TR/2001/REC-SVG-20010904/DTD/svg10.dtd">
<svg version="1.0" xmlns="http://www.w3.org/2000/svg"
 width="467.000000pt" height="467.000000pt" viewBox="0 0 467.000000 467.000000"
 preserveAspectRatio="xMidYMid meet">
<metadata>
Created by potrace 1.14, written by Peter Selinger 2001-2017
</metadata>
<g transform="translate(0.000000,467.000000) scale(0.100000,-0.100000)"
fill="#000000" stroke="none">
<path d="M1319 4666 c-3 -4 -29 -150 -34 -186 -2 -15 -10 -63 -19 -107 -9 -43
-18 -94 -21 -113 -3 -19 -16 -96 -30 -170 -13 -74 -40 -227 -60 -340 -20 -113
-47 -263 -60 -335 -13 -71 -26 -148 -29 -170 -3 -22 -8 -51 -11 -65 -10 -46
-31 -162 -41 -217 -2 -16 -16 -89 -29 -163 -13 -74 -27 -152 -31 -174 -3 -21
-8 -48 -10 -60 -2 -11 -11 -61 -20 -111 -21 -126 -23 -137 -29 -165 -2 -13 -7
-42 -11 -64 -3 -22 -7 -43 -9 -46 -1 -3 -6 -27 -9 -55 -4 -27 -9 -57 -11 -65
-4 -14 -37 -201 -50 -280 -3 -19 -10 -55 -15 -80 -5 -25 -17 -88 -25 -140 -9
-52 -19 -108 -22 -125 -3 -16 -7 -39 -8 -50 -2 -11 -8 -41 -13 -67 -5 -27 -9
-49 -8 -49 7 -7 439 -2 444 5 3 6 9 28 13 51 7 45 38 219 44 250 2 11 8 43 14
72 6 29 13 74 17 100 3 26 8 51 10 54 1 3 6 28 9 55 4 27 10 65 15 84 5 19 12
58 16 85 3 28 8 53 10 56 2 4 6 24 9 45 3 22 11 66 17 99 5 33 12 71 14 85 3
14 7 36 9 50 13 64 15 77 20 114 3 21 7 41 9 45 4 6 18 94 19 119 0 15 -19 14
275 16 161 1 256 -2 261 -9 4 -5 38 -86 76 -180 72 -180 84 -209 108 -265 8
-19 94 -224 190 -455 174 -418 199 -477 203 -483 1 -2 36 16 76 41 40 24 105
56 143 69 65 24 86 29 190 44 22 3 42 7 44 9 2 3 -184 454 -245 590 -7 17 -65
154 -129 305 -64 151 -125 295 -136 319 -10 24 -19 45 -19 46 0 2 24 9 53 15
155 37 386 142 455 207 7 7 17 13 21 13 16 0 176 165 229 235 91 122 179 314
211 465 56 259 22 500 -92 671 -104 154 -240 251 -437 313 -174 55 -220 58
-917 61 -354 1 -643 2 -644 1z m1162 -360 c215 -20 369 -108 439 -249 38 -77
41 -91 47 -202 10 -174 -42 -367 -138 -510 -116 -174 -265 -265 -524 -321 -16
-3 -210 -8 -431 -9 l-401 -3 3 21 c2 12 10 63 19 112 9 50 18 101 20 115 3 14
7 36 10 50 2 13 7 40 10 60 3 20 8 47 10 60 4 21 25 136 39 220 3 14 14 77 25
141 11 64 23 134 26 155 4 21 8 46 10 54 2 8 7 31 10 50 3 19 12 71 20 115 21
116 23 129 24 137 1 4 11 8 24 10 41 6 684 1 758 -6z"/>
<path d="M2695 2392 c-2 -3 2 -16 9 -31 7 -14 46 -105 86 -201 40 -96 79 -180
86 -186 8 -6 33 -15 57 -19 23 -5 44 -9 47 -10 153 -56 224 -98 318 -189 207
-199 281 -472 208 -771 -8 -36 -32 -93 -58 -143 -133 -251 -388 -410 -668
-416 -428 -10 -788 335 -792 759 -1 106 6 153 34 243 26 86 65 163 117 232 23
30 41 58 41 62 0 3 -11 33 -24 65 -14 32 -51 122 -83 201 -32 78 -60 142 -64
142 -18 0 -186 -185 -235 -258 -108 -162 -183 -360 -200 -527 -7 -61 -6 -255
1 -297 4 -24 9 -56 11 -73 23 -141 115 -353 210 -481 89 -120 233 -249 369
-331 91 -55 275 -123 375 -138 213 -32 375 -25 555 27 71 20 86 26 187 72 271
124 521 411 616 706 67 208 75 461 21 665 -44 171 -117 317 -225 451 -226 282
-550 440 -922 449 -40 1 -74 -1 -77 -3z"/>
</g>
</svg>
